<?xml version="1.0" encoding="UTF-8"?>
<svg id="Layer_2" data-name="Layer 2" xmlns="http://www.w3.org/2000/svg" viewBox="0 0 383.84 365.93">
  <defs>
    <style>
      .cls-1 {
        fill: #fff;
      }
    </style>
  </defs>
  <g id="Layer_1-2" data-name="Layer 1">
    <g>
      <path class="cls-1" d="M383.84,280.41c-1.64,2-2.15,4.65-3.93,6.61-3.55,3.93-7.87,6.15-13.16,6.04-2.13-.04-3.03,.65-3.68,2.63-.96,2.95-2.17,5.84-3.55,8.62-.82,1.66-.87,2.67,.51,4.17,7.35,7.95,7.14,17.31-.39,24.96-2.98,3.03-5.93,6.09-9.02,9-6.94,6.53-16.68,6.59-23.6,.02-1.72-1.63-3.06-2.25-5.03-.74-.48,.37-1.09,.64-1.69,.79-5.93,1.5-9.7,4.02-10.3,11.31-.57,6.9-8.07,11.79-15.25,12.01-4.49,.14-8.99,.06-13.49,.04-10.22-.06-17.21-6.56-17.71-16.83-.12-2.43-.82-3.69-3.13-4.1-.37-.07-.75-.15-1.07-.33-5.41-2.86-10.06-4.67-15.96,.56-4.97,4.41-13.46,2.61-18.63-2.09-3.88-3.52-7.64-7.21-11.15-11.1-6.14-6.8-5.95-16.31,.44-23.01,1.64-1.72,1.99-2.96,.81-5.08-1.38-2.49-2.59-5.17-3.28-7.91-.64-2.52-1.92-2.92-4.21-2.91-19.74,.08-39.48,.05-59.22,.04-4.69,0-7.75-2.05-8.63-5.64-1.24-5.03,2.24-9.37,7.76-9.39,13.12-.07,26.24-.13,39.35,.05,3.15,.04,4.48-.49,4.1-4-.38-3.58-.14-7.24-.07-10.86,.2-10.32,6.7-17.19,16.95-17.6,2.32-.09,3.22-.84,3.89-2.93,.91-2.83,2.05-5.64,3.46-8.25,1.04-1.92,.61-2.95-.8-4.43-7.02-7.41-6.87-17.1,.25-24.41,2.96-3.04,5.96-6.05,9.01-9.01,7.05-6.83,16.74-7.12,23.84-.47,1.94,1.81,3.38,2.1,5.43,.62,.69-.5,1.54-.86,2.37-1.08,5.33-1.39,8.58-3.7,9.05-10.25,.49-6.86,6.99-11.82,14.03-12.41,5.21-.43,10.49-.42,15.72-.22,9.78,.38,16.22,6.7,16.83,16.54,.15,2.37,.72,3.73,3.14,4.09,.72,.11,1.44,.42,2.1,.76,5.12,2.6,9.99,4.85,14.89-.85,1.7-1.98,4.98-2.39,7.75-2.1,2.56,.27,2.78-.81,2.77-2.92-.06-23.36-.08-46.73,.02-70.09,.01-2.65-.75-3.28-3.34-3.28-106.57,.06-213.14,.06-319.71,0-2.6,0-3.33,.67-3.32,3.31,.08,44.48,.05,88.96,.07,133.44,0,6.25,1.54,12.11,5.15,17.29,4.13,5.93,9.67,9.11,17.07,9.06,13.62-.1,27.24-.04,40.85-.02,5.75,0,9.19,2.83,9.19,7.49,0,4.65-3.49,7.56-9.18,7.57-13.12,.02-26.25-.4-39.35,.1-21.03,.8-33.58-14.57-37.36-29.39-.38-1.5-.21-3.2-1.46-4.42V33c1.35-.85,1.13-2.37,1.44-3.61C5.8,11.82,19.7,.03,36.44,.02,131.01,0,225.58,.02,320.15,0c9.49,0,17.52,3.42,24.14,10.13,9.05,9.18,12.27,20.51,12.26,33.11-.05,51.22,0,102.45-.08,153.67,0,3.47,.77,6.02,3.38,8.52,5.91,5.66,8.17,14.45,3.33,19.96-5.31,6.04-3.17,10.6-.51,16,.38,.78,.68,1.63,.84,2.47,.27,1.4,1.12,1.75,2.42,1.74,9.56-.06,15.1,5.11,17.91,13.82v20.99ZM178.05,99.86c28.99,0,57.97,0,86.96,0,24.36,0,48.73-.04,73.09,.06,2.62,.01,3.38-.64,3.28-3.28-.21-5.87-.05-11.74-.07-17.62-.04-13.62,.25-27.25-.22-40.85-.5-14.39-10.07-23.11-24.38-23.11-29.11,0-58.22,0-87.34,0-63.85,0-127.69,.03-191.54-.04-6.42,0-11.72,2.01-15.9,6.86-4.87,5.66-6.85,12.36-6.86,19.71-.03,18.12,.1,36.24-.11,54.35-.04,3.46,1.01,3.99,4.15,3.98,52.98-.1,105.95-.07,158.93-.07Zm57.17,106.85c-2.17,.98-3.59,3.13-5.34,4.85q-6.42,6.31-.16,12.77c4,4.13,4.39,6.63,1.48,11.66-3.07,5.32-5.5,10.88-7.04,16.83-1.64,6.34-3.7,7.94-10.25,7.97q-8.07,.04-8.07,8.15,0,9.06,9.08,9.14c5.47,.04,7.78,1.72,9.07,6.96,1.53,6.22,3.99,12.04,7.21,17.55,3.06,5.25,2.7,7.8-1.69,12.22q-5.91,5.94-.12,11.73,6.33,6.33,12.79,.04c3.97-3.88,6.6-4.26,11.35-1.48,5.19,3.04,10.62,5.46,16.42,7.04,7.45,2.03,8.67,3.6,8.7,11.18,.03,8.55-.89,7.47,7.67,7.5,9.52,.04,9.52,0,9.65-9.36,.08-5.27,1.67-7.42,6.78-8.79,6.17-1.65,12.06-3.92,17.57-7.18,5.64-3.33,7.87-3.02,12.53,1.59q5.92,5.86,11.75,.02,6.31-6.32-.05-12.82c-3.83-3.92-4.18-6.57-1.39-11.35,3.09-5.3,5.53-10.85,7.09-16.81,1.76-6.74,3.55-8.04,10.47-8.06,9.07-.03,8,.89,8.03-7.97q.03-9.07-9.19-9.31c-5.16-.13-7.5-1.92-8.83-6.87-1.66-6.16-3.92-12.06-7.18-17.58-3.38-5.72-3.03-8.04,1.74-12.83q5.66-5.69-.12-11.47-6.31-6.32-12.8-.05c-4.03,3.9-6.71,4.22-11.68,1.3-5.4-3.17-11.09-5.62-17.18-7.14-6.33-1.59-7.89-3.64-7.91-10.28q-.03-7.85-7.98-7.85-9.21,0-9.34,9.18c-.08,5.2-1.82,7.6-6.79,8.85-4.86,1.22-9.62,2.74-13.92,5.28-11.38,6.71-11.95,4.52-19.36-2.92-.77-.78-1.44-1.77-2.98-1.7Z"/>
      <path class="cls-1" d="M156.85,163.33c1.92-.1,3.81,1.01,5.37,2.76,6.99,7.82,14.04,15.59,20.9,23.51,3.77,4.35,3.71,9.56-.1,13.95-6.79,7.83-13.69,15.56-20.64,23.25-3.2,3.55-7.78,3.91-10.99,1.12-3.37-2.93-3.5-7.5-.17-11.3,5.18-5.92,10.34-11.86,15.75-17.57,1.96-2.07,1.67-3.21-.11-5.12-5.44-5.85-10.68-11.89-15.98-17.87-2.2-2.48-2.75-5.36-1.39-8.34,1.28-2.83,3.62-4.37,7.35-4.38Z"/>
      <path class="cls-1" d="M42.76,196.24c.13-2.61,1.14-4.95,2.95-6.98,6.81-7.64,13.57-15.32,20.43-22.92,3.37-3.73,7.97-4.06,11.24-1.01,3.12,2.91,3.21,7.42,.03,11.05-5.26,6.01-10.54,12.01-15.96,17.87-1.61,1.74-1.67,2.79-.03,4.56,5.43,5.85,10.72,11.85,15.98,17.86,2.71,3.1,3.12,6.76,1.19,9.62-1.95,2.9-4.72,3.9-8.13,3.23-1.81-.35-3.16-1.44-4.33-2.75-6.81-7.64-13.59-15.3-20.4-22.95-1.9-2.13-2.95-4.58-2.97-7.57Z"/>
      <path class="cls-1" d="M129.3,166.05c-1.54,6.56-3.21,13.71-4.91,20.86-3.26,13.69-6.52,27.38-9.8,41.07-1.09,4.56-3.35,6.98-6.84,7.42-5.21,.65-9.42-3.87-8.21-9.24,2.78-12.39,5.8-24.74,8.73-37.1,1.99-8.36,4-16.72,5.99-25.07,.76-3.18,2.59-5.37,5.81-6.19,2.79-.71,5.17,.21,7.16,2.17,1.51,1.48,2.02,3.39,2.06,6.08Z"/>
      <path class="cls-1" d="M113.32,278.08c4.29-.06,7.67,3.15,7.74,7.35,.07,4.18-3.27,7.63-7.46,7.71-4.11,.08-7.7-3.35-7.79-7.43-.09-4.12,3.31-7.56,7.51-7.62Z"/>
      <path class="cls-1" d="M258.41,83.17c-11.48,0-22.97,.22-34.45-.06-12.66-.31-22.77-9.94-24.37-22.66-1.49-11.88,6.51-23.62,18.42-27.02,2.41-.69,4.88-1.03,7.38-1.04,21.97,0,43.94-.11,65.9,.04,10.79,.07,19.02,4.96,23.56,14.88,4.33,9.45,3.01,18.54-3.5,26.64-4.99,6.2-11.73,9.16-19.63,9.23-11.11,.1-22.22,.03-33.33,.03,0-.01,0-.02,0-.03Zm.25-35.6c-11.1,0-22.2-.1-33.3,.04-6.29,.08-10.72,4.43-10.77,10.12-.05,5.67,4.4,10.29,10.59,10.33,22.2,.12,44.4,.09,66.6,0,4.32-.02,7.66-2.14,9.46-6.17,3.12-6.97-1.85-14.15-10.04-14.28-10.85-.16-21.7-.04-32.55-.04Z"/>
      <path class="cls-1" d="M44.86,57.6c.08-13.87,11.48-25.22,25.31-25.2,14.01,.02,25.41,11.57,25.28,25.62-.13,13.96-11.42,25.18-25.33,25.17-14.04,0-25.35-11.46-25.27-25.59Zm35.45,.29c.04-5.67-4.45-10.23-10.1-10.27-5.61-.04-10.23,4.52-10.25,10.13-.03,5.57,4.59,10.29,10.12,10.34,5.53,.05,10.2-4.61,10.24-10.2Z"/>
      <path class="cls-1" d="M161.21,57.8c0,14.04-11.5,25.47-25.52,25.38-13.82-.09-25.19-11.54-25.2-25.38-.01-13.93,11.69-25.56,25.57-25.41,13.88,.15,25.15,11.54,25.15,25.41Zm-15.08,0c0-5.56-4.65-10.19-10.25-10.2-5.64-.01-10.17,4.55-10.16,10.22,.02,5.63,4.62,10.27,10.17,10.25,5.53-.02,10.23-4.74,10.24-10.27Z"/>
      <path class="cls-1" d="M241.12,269.48c-.08-25.47,20.53-46.17,46.01-46.23,25.46-.06,46.29,20.6,46.37,45.97,.08,25.3-20.8,46.28-46.1,46.34-25.38,.06-46.2-20.66-46.28-46.08Zm46.29-31.12c-17.19-.05-31.04,13.63-31.14,30.75-.09,17.27,13.86,31.35,31.03,31.32,16.98-.03,30.98-14.03,31.04-31.03,.06-17.02-13.87-30.99-30.94-31.04Z"/>
    </g>
  </g>
</svg>