<?xml version="1.0" encoding="UTF-8"?>
<svg id="Layer_2" data-name="Layer 2" xmlns="http://www.w3.org/2000/svg" viewBox="0 0 383.87 383.89">
  <defs>
    <style>
      .cls-1 {
        fill: #fff;
      }
    </style>
  </defs>
  <g id="Layer_1-2" data-name="Layer 1">
    <g>
      <path class="cls-1" d="M278.16,383.89H104.22c-.13-.59-.62-.65-1.08-.84-10.23-4.19-15.11-12.43-13.13-22.35,1.62-8.09,9.25-15.63,20.34-15.21,9.1,.34,18.23,0,27.35,.12,2.39,.03,3.26-.52,3.18-3.07-.19-6.11-.27-12.25,.02-18.35,.16-3.41-.8-4.31-4.25-4.3-30.35,.15-60.7,.14-91.05,.06-19.86-.05-36.52-11.81-43.11-30.09-.86-2.39-.82-5.09-2.49-7.2V37.49c1.34-.72,1.02-2.19,1.29-3.27C4.51,21.56,11.96,12.21,23.1,5.61,27.82,2.82,33.2,1.89,38.24,0,140.45,0,242.67,0,344.89,0c.25,.23,.47,.61,.75,.65,18.35,3.03,30.13,13.7,36.24,31.03,.76,2.16,.61,4.59,2,6.55v244.43c-.82,.16-.75,.86-.87,1.44-3.89,19.2-21.2,36.57-48.09,36.01-29.46-.61-58.94-.1-88.42-.21-2.82-.01-3.61,.69-3.51,3.51,.23,6.36,.19,12.74,.01,19.1-.07,2.52,.75,3.11,3.16,3.08,9.86-.12,19.73-.2,29.6,0,13.09,.28,21.89,13.48,17.33,25.76-2.6,6.98-8.07,10.59-14.93,12.51Zm-86.43-128.03c58.46,0,116.93-.03,175.39,.08,3.25,0,4.07-.71,4.06-4.03-.11-68.33-.08-136.67-.09-205,0-20.63-13.58-34.13-34.3-34.13-96.56,0-193.13,0-289.69,0-20.91,0-34.33,13.47-34.33,34.47,0,68.21,.02,136.42-.08,204.63,0,3.25,.69,4.08,4.02,4.07,58.34-.12,116.68-.09,175.01-.09Zm.14,12.81H91.08c-24.86,0-49.71,.07-74.57-.08-3.23-.02-3.83,.94-3.81,3.96,.11,21.14,13.48,34.62,34.66,34.62,96.43,0,192.85,0,289.28,0,20.96,0,34.37-13.5,34.56-34.37,.03-3.54-1.03-4.21-4.33-4.2-58.33,.1-116.66,.07-174.99,.07Zm.07,102.45c26.84,0,53.69,0,80.53,0,1.25,0,2.52,.09,3.73-.14,3.31-.61,5.4-3.43,5.17-6.76-.22-3.17-2.5-5.49-5.76-5.82-.87-.09-1.75-.05-2.62-.05-54.06,0-108.12,0-162.18,0-1,0-2.02-.09-2.99,.09-3.03,.55-4.94,2.32-5.29,5.45-.35,3.06,.88,5.3,3.73,6.64,1.55,.73,3.17,.59,4.78,.59,26.97,0,53.93,0,80.9,0Zm-.03-51.14c-11.87,0-23.73,.04-35.6-.04-2.02-.01-2.83,.38-2.78,2.62,.15,6.74,.17,13.49,0,20.23-.06,2.43,.79,2.83,2.99,2.83,23.61-.08,47.21-.08,70.82,0,2.24,0,3.03-.46,2.97-2.85-.17-6.49-.26-13,.03-19.48,.13-3.04-.98-3.39-3.58-3.36-11.61,.13-23.23,.06-34.85,.06Z"/>
      <path class="cls-1" d="M287.47,204.72c-8.12,0-16.24,.03-24.36,0-8.16-.04-13.2-4.98-13.56-13.21q-.21-4.83-4.62-2.5c-6.94,3.65-13.87,7.34-20.85,10.93-5.4,2.77-10.44,5.65-14.75,10.36-8.08,8.84-21.95,9.56-31.87,2.73-9.95-6.86-13.8-19.74-9.2-30.84,4.63-11.17,16.45-17.59,28.24-15.26,1.4,.28,2.65,.16,4.02-.24,11.1-3.3,22.19-6.65,33.36-9.69,3.22-.88,2.43-1.82,.83-3.48-15.74-16.32-34.76-22.86-56.83-17.25-22.33,5.67-36.19,20.56-42.06,42.8-1.11,4.22-1.4,8.61-1.54,12.99-.24,7.42-5.5,12.63-12.94,12.66-16.61,.07-33.23,.06-49.84,0-8.57-.03-13.89-5.55-13.85-14.18,.28-54.14,34.09-103.35,84.87-123.5,72.75-28.87,155.14,10.82,177.89,85.7,3.72,12.25,5.74,24.77,5.8,37.59,.05,8.88-5.22,14.35-14.01,14.4-8.24,.04-16.49,0-24.73,0Zm-191.8-12.78c7.75,0,15.49-.03,23.24,.02,1.66,.01,2.62-.04,2.7-2.29,.54-15.15,5.37-28.83,14.76-40.79,1.18-1.5,1.17-2.34-.19-3.69-11-10.91-21.95-21.87-32.85-32.88-1.27-1.28-1.91-1.31-3.12,.12-18.78,22.09-28.86,47.53-29.8,76.57-.09,2.63,.86,3.03,3.15,2.99,7.37-.13,14.74-.05,22.12-.05Zm102.7-95.81c0,7.61,.08,15.22-.05,22.83-.04,2.28,.48,3.12,2.98,3.45,12.21,1.6,23.32,6.13,33.04,13.73,2.04,1.6,3.04,1.4,4.76-.35,10.5-10.67,21.05-21.29,31.78-31.73,2.24-2.18,1.6-3.03-.37-4.67-20.13-16.77-43.15-26.38-69.31-28.51-2.57-.21-2.89,.64-2.86,2.79,.09,7.48,.04,14.97,.04,22.46Zm-87.69,5.68c11.71,11.65,23.32,23.14,34.85,34.71,1.45,1.45,2.29,.68,3.42-.2,10.06-7.82,21.41-12.58,34.07-14.07,1.91-.23,2.52-.88,2.51-2.76-.06-15.47-.05-30.95,0-46.43,0-1.75-.44-2.48-2.35-2.19-3.33,.49-6.71,.63-10.03,1.16-23.59,3.78-44.29,13.67-62.47,29.79Zm177.1,90.12h0c7.5,.01,15-.12,22.49,.08,2.71,.07,3.28-.75,3.19-3.33-1.01-28.75-11-53.96-29.48-75.94-1.71-2.04-2.47-1.37-3.91,.08-10.56,10.65-21.2,21.21-31.74,31.87-.84,.85-3.24,1.62-1.49,3.41,1.58,1.61,1.81,5,5.81,3.75,8.2-2.57,16.57-4.58,24.88-6.77,2.04-.54,4.07-1.16,6.25-.8,5.11,.85,8.68,4.33,9.72,9.56,.91,4.59-1.05,9.15-5.51,11.74-5.92,3.44-11.78,7.16-18.07,9.77-6.87,2.85-9.97,6.71-7.75,14.28,.55,1.87,.97,2.35,2.74,2.34,7.62-.07,15.24-.03,22.86-.03Zm-83.08-.11c-.06-7.09-5.85-12.73-12.98-12.63-6.94,.09-12.51,5.73-12.54,12.69-.03,7.11,5.68,12.84,12.79,12.83,7.11-.01,12.79-5.76,12.73-12.89Zm63.61-29.87c-.09-.38-.17-.76-.26-1.15-18.49,5.15-36.98,10.29-55.62,15.48,1.12,2.2,1.93,4.03,2.94,5.72,1.26,2.1,.48,6.04,2.58,6.38,2.09,.33,4.62-2.01,6.93-3.24,14.48-7.72,28.95-15.46,43.42-23.2Z"/>
      <path class="cls-1" d="M191.69,294.17c-2.36,0-4.75,.24-7.07-.06-3.41-.44-5.25-2.65-5.41-6.08-.15-3.3,2.07-6.12,5.54-6.33,4.83-.29,9.7-.3,14.53,.03,3.42,.23,5.25,2.63,5.41,6.05,.16,3.31-2.05,5.96-5.54,6.35-2.45,.28-4.96,.05-7.45,.05,0,0,0-.02,0-.03Z"/>
    </g>
  </g>
</svg>