<?xml version="1.0" encoding="UTF-8"?>
<svg id="Layer_2" data-name="Layer 2" xmlns="http://www.w3.org/2000/svg" viewBox="0 0 464.7 453.95">
  <defs>
    <style>
      .cls-1 {
        fill: #fff;
      }
    </style>
  </defs>
  <g id="Layer_1-2" data-name="Layer 1">
    <g>
      <path class="cls-1" d="M464.58,269.61c-.45,8.98,.9,20.12-.64,31.17-2.22,15.88-10.68,27.64-24.59,35.4-2.58,1.44-3.26,2.96-3.3,5.73-.17,10.93,.99,21.92-.82,32.79-5.45,32.76-32.79,56.25-66.05,56.74-10.02,.15-20.05,.1-30.08-.01-2.55-.03-3.94,.55-5.21,3.1-6.28,12.53-16.55,19.15-30.66,19.32-11.26,.13-22.52,.13-33.78,0-18.87-.23-33.15-14.13-33.81-32.72-.63-18,13.06-33.11,31.7-34.2,13.08-.77,26.22-.8,39.3,.07,12.56,.84,21.66,7.54,27.1,18.76,1.42,2.91,2.88,3.67,5.82,3.56,12.01-.47,24.07,.83,36.04-.79,21-2.84,37.52-21.2,38.17-42.38,.22-7.09-.01-14.19,.17-21.28,.06-2.34-.76-2.95-2.96-3.48-16.51-4-25.24-15.18-25.27-32.23-.04-27.92-.05-55.84,0-83.76,.03-16.9,8.53-27.8,24.93-32,2.09-.54,2.95-1.08,2.73-3.6-7.07-80.78-64.01-146.14-142.5-163.42C177.71,5.86,83.35,62.68,57.48,154.88c-3.21,11.45-5.16,23.12-6.26,34.96-.19,2.09,.22,2.85,2.34,3.44,17.74,4.94,25.38,15.09,25.38,33.51,.01,27.77,.1,55.53-.03,83.3-.09,18.17-12.93,31.78-30.19,31.86-19.29,.09-33.58-8.81-43.02-25.45-4.02-7.1-5.62-14.94-5.62-23.08-.02-17.43-.19-34.86,.04-52.29,.25-19.17,8.84-33.64,25.67-42.91,2.52-1.39,2.92-2.99,3.06-5.43C33.28,111.06,86.67,39.64,164.01,11.94c113.56-40.68,237.79,26.41,266.39,143.86,3,12.31,4.79,24.81,5.4,37.45,.12,2.47,.91,3.73,3.08,4.94,16.8,9.33,25.29,23.79,25.67,42.94,.18,8.79,.03,17.58,.03,28.48Zm-56.65-2.31c0,14.17-.06,28.34,.02,42.51,.04,7.19,3.54,10.3,10.75,9.9,12.64-.7,23.3-11.45,23.54-24.65,.33-18.48,.3-36.96,0-55.44-.19-11.93-8.71-21.81-20.3-24.31-9.25-2-14.36,1.89-14.11,10.88,.37,13.7,.1,27.41,.1,41.12Zm-351.21-.07c0-14.17,.06-28.34-.02-42.51-.04-6.91-3.53-10.08-10.41-9.82-12.75,.48-23.68,11.46-23.89,24.79-.29,18.48-.31,36.97,.01,55.44,.23,12.95,10.74,23.7,23.14,24.55,7.69,.52,11.13-2.61,11.16-10.4,.05-14.02,.01-28.03,.01-42.05Zm229.58,164.41c5.69,0,11.39,.09,17.08-.02,6.8-.14,11.5-4.76,11.56-11.17,.07-6.45-4.46-11.29-11.3-11.41-11.38-.2-22.77-.18-34.16,0-6.9,.1-11.6,4.84-11.62,11.14-.03,6.6,4.78,11.33,11.81,11.46,5.54,.1,11.08,.02,16.62,.02Z"/>
      <path class="cls-1" d="M232.21,107.99c23.6,0,47.21-.09,70.81,.03,23.8,.12,42.36,14.91,47.26,37.61,.77,3.59,1.02,7.35,1.03,11.03,.08,30.86,.16,61.71,0,92.57-.11,23.98-14.31,42.21-36.69,47.59-4.22,1.01-8.52,1.32-12.85,1.32-18.51-.01-37.02,.08-55.53-.08-3.22-.03-5.4,.97-7.63,3.22-12.15,12.28-24.44,24.43-36.72,36.58-8.09,8-17.55,10.34-26.46,6.33-9.98-4.49-14.3-12.59-14.25-23.3,.03-6.33-.15-12.66,.07-18.97,.11-2.94-.74-3.75-3.72-4.04-22.33-2.14-38.59-16.23-43.15-37.39-.84-3.88-1.05-7.96-1.06-11.95-.08-30.39-.1-60.79-.03-91.18,.06-24.59,14.59-43.24,37.52-48.34,3.93-.87,7.95-1.01,11.96-1.01,23.14,0,46.28,0,69.42,0Zm-48.78,215.6c2.58-.65,3.5-2.19,4.66-3.34,13.25-13.13,26.53-26.23,39.66-39.49,3.38-3.42,7.07-4.95,11.9-4.92,20.81,.15,41.63,.09,62.44,.06,16.52-.03,26.96-10.27,27.01-26.73,.1-30.84,.11-61.68,0-92.52-.06-16.25-10.46-26.4-26.79-26.41-46.72-.03-93.44-.01-140.15,0-3.09,0-6.14,.2-9.13,1.15-10.86,3.46-17.44,12.59-17.48,24.97-.09,31.15-.03,62.3-.02,93.44,0,1.38,.14,2.77,.3,4.15,1.27,10.86,9.27,19.32,19.98,21.39,4.45,.86,8.91,.52,13.37,.55,10.62,.08,14.21,3.57,14.23,14.06,.01,11.05,0,22.1,0,33.65Z"/>
      <path class="cls-1" d="M248.77,204.88c-.07,8.94-7.77,16.5-16.66,16.35-8.97-.15-16.47-7.9-16.24-16.76,.23-8.81,7.65-16.09,16.42-16.11,8.93-.02,16.55,7.61,16.48,16.52Z"/>
      <path class="cls-1" d="M194.68,204.76c.02,9.08-7.42,16.54-16.41,16.47-8.99-.07-16.38-7.62-16.28-16.64,.09-8.83,7.39-16.12,16.22-16.23,8.99-.11,16.45,7.31,16.47,16.4Z"/>
      <path class="cls-1" d="M302.66,204.61c.09,9.01-7.33,16.56-16.31,16.62-8.99,.06-16.41-7.41-16.38-16.49,.03-8.92,7.12-16.17,16.02-16.38,8.92-.21,16.59,7.26,16.67,16.25Z"/>
    </g>
  </g>
</svg>