<?xml version="1.0" encoding="UTF-8"?>
<svg id="Layer_2" data-name="Layer 2" xmlns="http://www.w3.org/2000/svg" viewBox="0 0 356.82 383.85">
  <defs>
    <style>
      .cls-1 {
        fill: #fff;
      }
    </style>
  </defs>
  <g id="Layer_1-2" data-name="Layer 1">
    <g>
      <path class="cls-1" d="M162.6,0h32.24c1.87,1.97,2.37,4.35,2.44,7.01,.1,3.74,.56,7.47,.76,11.21,.09,1.73,.72,2.55,2.53,3.03,6.52,1.73,12.77,4.25,18.56,7.74,1.77,1.07,2.78,.66,4.14-.59,3.03-2.79,6.2-5.43,9.33-8.11,3.28-2.8,5.07-2.82,8.06,.13,6.13,6.05,12.22,12.15,18.29,18.28,2.87,2.9,2.91,4.93,.22,8.1-2.42,2.86-5.01,5.58-7.33,8.51-.94,1.18-3.25,2.01-1.71,4.29,1.49,2.21,1.87,4.97,5.9,4.93,26.98-.24,53.97,.24,80.94-.28,13.41-.26,19.91,8.6,19.87,19.71-.28,65.33-.26,130.66,0,195.98,.04,10.96-6.38,19.78-19.55,19.66-40.97-.38-81.94-.12-122.91-.19-2.91,0-3.71,.37-2.47,3.43,4.42,10.97,8.8,21.96,12.69,33.12,1.41,4.05,3.15,5.41,7.54,5.36,13.92-.16,23.94,10.13,24.11,24.11,.05,3.87-.15,7.75,.06,11.61,.16,2.88-.75,5.06-2.97,6.78H103.37c-2.13-1.62-3-3.72-2.89-6.44,.17-4.24-.06-8.5,.08-12.74,.34-10.71,6.87-19.38,16.75-22.39,3.27-1,6.62-1.15,10-1.08,1.34,.03,2.53,.21,3.16-1.7,4.37-13.22,8.91-26.38,13.39-39.55-1.55-.79-2.94-.46-4.29-.46-40.22-.02-80.44-.01-120.66-.02-12.5,0-18.91-6.4-18.91-18.86C0,214.79,0,148.96,0,83.14c0-12.26,6.44-18.71,18.68-18.72,27.11-.01,54.21,0,81.32,0,.75,0,1.5-.02,2.25,0,3.34,.11,2.94-3.2,4.4-4.81,1.34-1.48,.1-2.45-.8-3.48-2.8-3.19-5.56-6.42-8.39-9.58-2.31-2.58-2.39-5.06,.12-7.55,6.28-6.26,12.57-12.51,18.82-18.81,2.49-2.51,4.9-2.54,7.52-.2,3.26,2.91,6.67,5.66,9.87,8.62,1.32,1.22,2.29,1.36,3.85,.4,3.92-2.43,8.05-4.79,12.53-5.69,6.54-1.3,10.07-4.24,9.02-11.36-.26-1.81,.4-3.73,.35-5.59-.07-2.71,.81-4.83,3.05-6.37Zm12.89,290.64c1.9,.56,3.8,.56,5.7,0,1.37-.06,2.74-.18,4.1-.18,26.97-.01,53.95,0,80.92,0,24.11,0,48.21,.01,72.32,0,6.47,0,9.09-2.65,9.13-9.08,.02-3.12-.24-6.27,.07-9.36,.36-3.5-.58-4.54-4.34-4.54-110.04,.12-220.08,.1-330.12,.1-.62,0-1.26,.08-1.87-.01-2.09-.31-2.51,.71-2.43,2.58,.13,3.37,.03,6.74,.04,10.12,0,7.94,2.27,10.21,10.26,10.21,42.09,0,84.19-.01,126.28,0,9.98,0,19.96,.12,29.94,.18Zm2.99-32.09c55.09,0,110.17-.02,165.26,.06,2.93,0,4.02-.44,4.02-3.75-.12-48.59-.11-97.19-.01-145.78,0-2.96-.77-3.71-3.7-3.69-18.61,.14-37.22,.04-55.84,.1-2.82,0-6.55-1.25-8.2,.6-1.39,1.55-.45,5.2-.54,7.93-.13,3.87-1.49,5.42-5.37,5.77-4.23,.38-8.47,.75-12.71,.84-1.98,.04-2.8,.73-3.29,2.59-1.71,6.54-4.27,12.76-7.73,18.56-.97,1.62-.73,2.57,.47,3.87,2.96,3.22,5.73,6.6,8.62,9.88,2.33,2.65,2.15,5.13-.29,7.57-6.27,6.27-12.53,12.55-18.81,18.81-2.33,2.32-4.74,2.44-7.26,.21-3.37-2.97-6.84-5.83-10.18-8.84-1.3-1.17-2.27-1.32-3.87-.38-5.82,3.43-12.03,6.03-18.58,7.7-2,.51-2.53,1.48-2.6,3.36-.15,4.12-.52,8.22-.8,12.33-.27,4.06-1.58,5.43-5.5,5.46-8.87,.05-17.74,0-26.61,.03-3.58,.02-5.2-1.78-5.38-5.25-.22-4.24-.64-8.47-.82-12.71-.08-1.9-.73-2.78-2.69-3.3-6.4-1.69-12.55-4.16-18.23-7.57-1.92-1.15-2.97-.84-4.45,.55-3.1,2.9-6.41,5.56-9.58,8.39-2.65,2.37-5.07,2.17-7.53-.3-6.25-6.29-12.55-12.54-18.81-18.81-2.32-2.33-2.46-4.72-.24-7.25,2.89-3.28,5.63-6.69,8.61-9.89,1.34-1.44,1.48-2.54,.44-4.2-2.45-3.92-4.13-8.22-5.85-12.5-1.09-2.71-.68-6.68-3.17-7.98-2.55-1.33-6.09-.84-9.21-.96-10.61-.43-10.73-.41-10.6-10.87,.04-2.84-.58-3.76-3.62-3.73-20.36,.15-40.72,.16-61.08,0-3.24-.03-3.81,.97-3.8,3.97,.1,48.34,.11,96.69-.02,145.03,0,3.47,.92,4.25,4.29,4.24,55.09-.11,110.17-.08,165.26-.08ZM117.61,57.89c.1,1.2-.49,2.17-1.09,3.12-4.86,7.64-8.37,15.83-10.23,24.72-.59,2.83-2.42,4.15-5.32,4.27-3.87,.16-7.72,.65-11.59,.72-2.31,.04-2.98,.89-2.92,3.13,.15,4.86,.13,9.73,0,14.59-.05,1.88,.43,2.59,2.43,2.65,4.11,.13,8.22,.58,12.33,.88,2.86,.21,4.54,1.65,5.13,4.52,1.8,8.76,5.2,16.88,10.12,24.35,1.6,2.43,1.54,4.58-.42,6.78-2.82,3.17-5.48,6.49-8.34,9.62-1.08,1.18-1.12,1.89,.03,3.02,3.77,3.65,7.5,7.34,11.11,11.14,1.28,1.35,2.1,1.2,3.36,.07,3.06-2.76,6.28-5.33,9.34-8.1,2.18-1.97,4.4-2.14,6.8-.59,7.61,4.92,15.87,8.32,24.71,10.28,2.72,.6,4.02,2.18,4.18,4.93,.25,4.11,.66,8.22,.89,12.33,.1,1.86,.75,2.54,2.72,2.48,4.99-.15,10-.16,14.99,0,2.02,.07,2.59-.7,2.69-2.52,.22-3.99,.68-7.97,.85-11.96,.13-3.1,1.54-4.71,4.59-5.37,8.72-1.89,16.87-5.23,24.33-10.18,2.41-1.6,4.61-1.4,6.79,.56,3.06,2.76,6.28,5.34,9.34,8.1,1.24,1.11,2.07,1.34,3.36-.02,3.61-3.8,7.35-7.49,11.11-11.15,1.12-1.09,1.2-1.81,.08-3.02-2.71-2.94-5.12-6.15-7.87-9.04-2.51-2.64-2.48-5.06-.55-8.02,4.68-7.16,7.9-14.99,9.66-23.35,.68-3.23,2.44-4.73,5.6-4.94,3.99-.26,7.97-.69,11.96-.8,2.02-.06,2.47-.82,2.42-2.69-.12-4.86-.14-9.73,0-14.59,.07-2.23-.6-3.09-2.91-3.13-3.87-.07-7.72-.58-11.59-.72-3.12-.12-4.78-1.61-5.41-4.61-1.83-8.75-5.25-16.87-10.15-24.34-1.61-2.46-1.43-4.58,.51-6.77,2.83-3.17,5.49-6.48,8.33-9.63,1.05-1.16,1.11-1.82-.08-2.96-3.79-3.63-7.5-7.34-11.11-11.14-1.24-1.31-2-1.33-3.32-.12-3.03,2.79-6.26,5.36-9.33,8.11-2.14,1.93-4.27,2.29-6.77,.68-7.61-4.9-15.81-8.41-24.71-10.26-2.82-.58-4.2-2.3-4.31-5.26-.16-3.99-.63-7.97-.84-11.96-.1-1.98-.75-2.78-2.9-2.71-4.87,.17-9.75,.17-14.61,0-2.14-.07-2.81,.72-2.91,2.71-.2,3.99-.68,7.97-.83,11.96-.11,2.96-1.48,4.68-4.3,5.26-8.9,1.82-17.11,5.31-24.7,10.26-2.53,1.65-4.59,1.27-6.73-.65-3.06-2.75-6.29-5.33-9.34-8.1-1.25-1.14-2.02-1.34-3.32,.03-3.6,3.81-7.33,7.5-11.11,11.14-1.13,1.09-1.25,1.74-.15,2.95,2.78,3.04,5.4,6.23,8.08,9.36,.98,1.14,1.99,2.27,1.89,3.93Zm60.72,316.97c20.36,0,40.72,0,61.07,0q7.75,0,7.74-7.71c-.02-11.32-5.68-16.93-17.1-16.93-22.6,0-45.2,0-67.81,0-12.49,0-24.97-.06-37.46,.02-8.96,.06-14.99,6.08-15.24,15.01-.05,2,.18,4.02-.06,5.99-.36,2.95,.69,3.71,3.64,3.69,21.73-.13,43.46-.07,65.2-.07Zm-38.93-33.64c25.34,0,50.19-.02,75.04,.04,2.34,0,2.34-.68,1.59-2.58-4.82-12.28-9.56-24.6-14.22-36.94-.64-1.69-1.45-2.29-3.24-2.29-14.24,.06-28.48,.05-42.72,.01-1.58,0-2.48,.39-3.03,2.03-4.37,13.1-8.83,26.16-13.43,39.73ZM99.98,73.62c-.24-.06-.48-.17-.72-.17-27.48-.01-54.96-.05-82.45,0-4.72,0-7.61,2.99-7.78,7.77-.13,3.87,.18,7.76-.1,11.61-.22,3.03,.82,3.71,3.73,3.69,18.36-.13,36.73-.04,55.09-.1,3.09-.01,6.94,1.31,9.06-.59,1.81-1.63,.44-5.45,.56-8.29,.14-3.24,1.56-5.14,4.97-5.32,2.87-.14,5.73-.42,8.59-.61q7.33-.47,9.07-7.63c.03-.11-.02-.25-.03-.37Zm199.44-.2c-12.36,0-24.73,0-37.09,0-5.99,0-6.57,1.09-3.87,6.6,.62,1.27,1.51,1.11,2.41,1.19,2.73,.25,5.48,.43,8.22,.61q10.34,.65,10.37,10.86c0,.37,.05,.76,0,1.12-.34,2.17,.63,2.71,2.72,2.71,20.86-.07,41.72-.07,62.57,0,2.23,0,3.12-.49,2.99-2.89-.21-3.61-.04-7.24-.06-10.86-.03-6.7-2.62-9.32-9.28-9.33-12.99-.02-25.98,0-38.97,0Z"/>
      <path class="cls-1" d="M178.29,38.89c34.3-.02,62.2,27.79,62.23,62.04,.03,34.13-28,62.21-62.14,62.25-34.13,.04-62.19-27.99-62.22-62.15-.02-34.26,27.83-62.13,62.12-62.15Zm18.15,111.74c23.57-7.26,38.86-34.04,34.23-59.28-4.96-27.06-29.12-45.29-57.41-43.34-25.45,1.76-46.98,24.38-48.04,50.48-.94,22.96,16.19,48.7,34.48,51.59,0-10.26-.11-20.5,.07-30.73,.05-3.04-.34-4.7-3.92-4.12-2.08,.34-4.02-.46-4.98-2.54-.86-1.87-.37-3.64,.81-5.27,7.6-10.52,15.15-21.08,22.81-31.55,2.31-3.16,5.31-3.15,7.78-.17,1.19,1.44,2.21,3.02,3.3,4.54,6.27,8.71,12.53,17.43,18.84,26.11,1.45,1.99,2.79,4.02,1.5,6.5-1.21,2.32-3.52,2.54-5.86,2.44-.37-.02-.76,.04-1.12,0-1.96-.28-2.54,.54-2.52,2.5,.09,10.86,.04,21.73,.04,32.86Zm-32.65-44.64c4.17,.68,4.99,3.25,4.96,6.75-.12,12.35,.07,24.7-.13,37.04-.05,3.03,.98,3.86,3.76,3.98,3.99,.18,7.96,.2,11.96,0,2.37-.12,3.14-.87,3.11-3.34-.14-12.47,.03-24.95-.12-37.42-.04-3.85,.91-6.57,5.59-7.09-4.67-6.47-9.11-12.59-13.5-18.74-.86-1.21-1.38-1.06-2.17,.05-4.39,6.18-8.82,12.32-13.46,18.78Z"/>
      <circle class="cls-1" cx="178.41" cy="279.44" r="8.81"/>
    </g>
  </g>
</svg>