<svg id="Group_462" data-name="Group 462" xmlns="http://www.w3.org/2000/svg" xmlns:xlink="http://www.w3.org/1999/xlink" width="18.48" height="13.235" viewBox="0 0 18.48 13.235">
  <defs>
    <clipPath id="clip-path">
      <rect id="Rectangle_491" data-name="Rectangle 491" width="18.48" height="13.236" fill="#ff8a00"/>
    </clipPath>
  </defs>
  <g id="Group_459" data-name="Group 459" clip-path="url(#clip-path)">
    <path id="Path_6526" data-name="Path 6526" d="M1.117.937c.525.4.98.9,1.513,1.3.332.25.605.616.937.866C4.914,4.114,6.08,5.331,7.425,6.345c.438.329.815.745,1.262,1.081.17.128.283.355.505.433.037.029.009.013.072.036A14.757,14.757,0,0,1,11.1,6.345c.243-.184.441-.466.686-.649.815-.615,1.527-1.331,2.344-1.947l.433-.433c.815-.615,1.528-1.331,2.344-1.947.388-.292.7-.711,1.117-.973V.325A2.965,2.965,0,0,0,17.342,0H1.117C1.035.061.944.027.83.072c-.147.057-.237.2-.4.253.094.257.475.454.684.612m2.2,8.4c.243-.183.441-.466.686-.649.582-.439,1.085-.974,1.659-1.406A2.877,2.877,0,0,0,6.347,6.7h.036L0,1.153V12.115c.414-.272.729-.681,1.117-.973.763-.574,1.436-1.228,2.2-1.8M18.425,1.153a7.535,7.535,0,0,1-1.37,1.189c-.27.2-.488.518-.758.722-.808.61-1.5,1.336-2.308,1.947-.477.361-.885.823-1.37,1.189-.183.139-.3.385-.541.466V6.7c.413.271.73.681,1.117.973.864.651,1.629,1.4,2.488,2.055.233.173.42.44.649.613.507.382.944.851,1.442,1.226a2.745,2.745,0,0,1,.649.541h.036V1.979a2.28,2.28,0,0,0-.036-.83m-.794,11.358c-.45-.34-.838-.772-1.3-1.117-.243-.184-.441-.466-.686-.649-.993-.748-1.862-1.629-2.848-2.38-.332-.25-.89-.951-1.262-1.081-.177-.048-.392.321-.541.433-.406.319-.755.71-1.153,1.017a2.275,2.275,0,0,0-.582.505c-.249-.09-.383-.358-.582-.505-.417-.324-.766-.736-1.18-1.047a1.968,1.968,0,0,1-.505-.433H6.887a3.12,3.12,0,0,1-.758.649c-.613.466-1.144,1.047-1.767,1.513-.256.193-.466.492-.722.686-.727.549-1.363,1.181-2.095,1.731-.388.292-.7.711-1.117.973.116.275.4.28.722.361a5.326,5.326,0,0,0,1.081.036H14.382c1.047,0,3.1.2,3.608-.325h.036c-.068-.18-.254-.253-.4-.361" transform="translate(0 0)" fill="#ff8a00" fill-rule="evenodd"/>
  </g>
</svg>
