<svg id="Group_461" data-name="Group 461" xmlns="http://www.w3.org/2000/svg" xmlns:xlink="http://www.w3.org/1999/xlink" width="14.65" height="14.626" viewBox="0 0 14.65 14.626">
  <defs>
    <clipPath id="clip-path">
      <rect id="Rectangle_487" data-name="Rectangle 487" width="14.65" height="14.626" fill="#ff8a00"/>
    </clipPath>
  </defs>
  <g id="Group_456" data-name="Group 456" clip-path="url(#clip-path)">
    <path id="Path_6525" data-name="Path 6525" d="M2.986.009a2.555,2.555,0,0,1,.8.042C4.695.429,4.909,1.884,5.3,2.818c.16.392.579,1.107.4,1.66-.258.8-.974,1.177-1.512,1.7,0,.455.48.851.693,1.134a7.887,7.887,0,0,0,1.511,1.54l.273.293c.194.146.352.315.546.461.267.2.821.84,1.2.861a3.624,3.624,0,0,1,.525-.509c.39-.39.72-.9,1.345-1.05a1.594,1.594,0,0,1,1.05.252c.522.221,1.067.394,1.575.61.436.185,1.319.381,1.549.735a2.206,2.206,0,0,1,.084,1.638,3.2,3.2,0,0,1-1.68,2.162,4.97,4.97,0,0,1-2.625.231c-.332-.08-.671-.111-.987-.21a10.612,10.612,0,0,1-2.225-.987A14.931,14.931,0,0,1,.632,6.308,12.063,12.063,0,0,1,.064,4.4Q.054,4.206.043,4.02a4.306,4.306,0,0,1,.547-2.6A3.042,3.042,0,0,1,2,.222a4.525,4.525,0,0,1,.651-.17c.111-.027.251.011.332-.042" transform="translate(0.002 0)" fill="#ff8a00" fill-rule="evenodd"/>
  </g>
</svg>
