<svg width="27" height="32" viewBox="0 0 27 32" fill="none" xmlns="http://www.w3.org/2000/svg">
<path d="M7.10803 28.0549V12.4619C8.04303 11.9309 8.94905 11.2739 9.85205 10.7089C10.4734 10.4228 11.0593 10.0654 11.598 9.64392H11.723V27.8669C12.432 28.0589 12.8231 28.7669 13.5941 28.8669L15.278 27.8019V9.64392H15.403C15.7332 9.88952 16.0885 10.0994 16.463 10.2699C17.22 10.7479 18.008 11.2959 18.77 11.7699C18.989 11.9069 19.87 12.2819 19.955 12.4589V28.0519C19.4843 28.2636 19.0441 28.5374 18.6461 28.8659C17.6191 29.5089 16.588 30.1119 15.591 30.7449C14.8536 31.0713 14.1618 31.4921 13.533 31.9969L7.10803 28.0549ZM23.5081 10.2699C22.5374 9.74411 21.6003 9.15866 20.702 8.51694C19.259 7.59994 17.785 6.85294 16.337 5.94894C15.4359 5.24623 14.4514 4.65742 13.406 4.19592C12.5692 4.82706 11.671 5.37249 10.725 5.82394C9.17904 6.78894 7.59303 7.80094 6.04803 8.76694C5.45503 9.13794 4.86906 9.47694 4.30206 9.83194C4.10206 9.95994 3.60203 10.0669 3.49103 10.2699V25.7999H3.36603C3.09447 25.6014 2.80169 25.4337 2.49304 25.2999C1.92504 24.9459 1.31601 24.5239 0.747009 24.1729C0.560009 24.0579 0.0970234 23.9809 -0.000976562 23.7969V8.20294L13.468 0.00292969L26.999 8.20294V23.7959C26.1612 24.2055 25.349 24.6657 24.567 25.1739C24.2443 25.4305 23.8875 25.6412 23.507 25.7999L23.5081 10.2699Z" fill="#FF6600"/>
</svg>
