<svg xmlns="http://www.w3.org/2000/svg" xmlns:xlink="http://www.w3.org/1999/xlink" width="15.878" height="11.372" viewBox="0 0 15.878 11.372">
  <defs>
    <clipPath id="clip-path">
      <rect id="Rectangle_491" data-name="Rectangle 491" width="15.878" height="11.372" fill="#fff"/>
    </clipPath>
  </defs>
  <g id="Group_462" data-name="Group 462" transform="translate(0)">
    <g id="Group_459" data-name="Group 459" transform="translate(0 0)" clip-path="url(#clip-path)">
      <path id="Path_6526" data-name="Path 6526" d="M.96.805c.451.34.842.769,1.3,1.115.285.215.52.529.805.744,1.157.871,2.159,1.916,3.315,2.788.376.283.7.64,1.084.929.146.11.243.305.434.372.032.025.008.011.062.031a12.679,12.679,0,0,1,1.58-1.332c.209-.158.379-.4.589-.558.7-.528,1.312-1.144,2.014-1.673l.372-.372c.7-.528,1.313-1.144,2.014-1.673.333-.251.6-.611.96-.836V.279A2.548,2.548,0,0,0,14.9,0H.96C.889.052.811.023.713.062.587.111.509.235.372.279.453.5.78.669.96.805M2.85,8.024c.209-.157.379-.4.589-.558.5-.377.932-.837,1.425-1.208a2.472,2.472,0,0,0,.589-.5h.031L0,.991v9.418c.356-.234.626-.585.96-.836.656-.493,1.234-1.055,1.89-1.549M15.831.991a6.474,6.474,0,0,1-1.177,1.022c-.232.175-.419.445-.651.62-.694.524-1.289,1.148-1.983,1.673-.41.31-.76.707-1.177,1.022-.157.119-.261.331-.465.4v.031c.355.233.627.585.96.836.742.559,1.4,1.207,2.138,1.766.2.149.361.378.558.527.436.328.811.731,1.239,1.053a2.358,2.358,0,0,1,.558.465h.031V1.7a1.959,1.959,0,0,0-.031-.713m-.682,9.759c-.387-.292-.72-.663-1.115-.96-.209-.158-.379-.4-.589-.558-.853-.643-1.6-1.4-2.447-2.045-.285-.215-.765-.817-1.084-.929-.152-.041-.337.276-.465.372C9.1,6.9,8.8,7.236,8.458,7.5a1.955,1.955,0,0,0-.5.434c-.214-.077-.329-.308-.5-.434C7.1,7.222,6.8,6.868,6.444,6.6a1.691,1.691,0,0,1-.434-.372H5.917a2.681,2.681,0,0,1-.651.558c-.527.4-.983.9-1.518,1.3-.22.166-.4.423-.62.589-.625.472-1.171,1.015-1.8,1.487-.333.251-.6.611-.96.836.1.236.346.241.62.31a4.576,4.576,0,0,0,.929.031h10.44c.9,0,2.664.176,3.1-.279h.031c-.058-.155-.218-.217-.341-.31" fill="#fff" fill-rule="evenodd"/>
    </g>
  </g>
</svg>
