<svg xmlns="http://www.w3.org/2000/svg" xmlns:xlink="http://www.w3.org/1999/xlink" width="13.238" height="13.216" viewBox="0 0 13.238 13.216">
  <defs>
    <clipPath id="clip-path">
      <rect id="Rectangle_487" data-name="Rectangle 487" width="13.238" height="13.216" fill="#fff"/>
    </clipPath>
  </defs>
  <g id="Group_461" data-name="Group 461" transform="translate(0)">
    <g id="Group_456" data-name="Group 456" transform="translate(0 0)" clip-path="url(#clip-path)">
      <path id="Path_6525" data-name="Path 6525" d="M2.7.008a2.309,2.309,0,0,1,.721.038c.823.341,1.017,1.656,1.366,2.5.145.354.523,1,.36,1.5-.233.723-.88,1.064-1.366,1.537,0,.411.434.769.626,1.025A7.127,7.127,0,0,0,5.772,8l.247.265c.175.132.318.285.493.417.241.182.742.759,1.082.778A3.275,3.275,0,0,1,8.068,9c.352-.352.651-.813,1.215-.949a1.44,1.44,0,0,1,.949.228c.472.2.964.356,1.423.551.394.167,1.192.344,1.4.664a1.993,1.993,0,0,1,.076,1.48,2.89,2.89,0,0,1-1.518,1.954,4.491,4.491,0,0,1-2.372.209c-.3-.072-.606-.1-.892-.19a9.589,9.589,0,0,1-2.011-.892A13.492,13.492,0,0,1,.573,5.7,10.9,10.9,0,0,1,.06,3.974Q.051,3.8.041,3.632A3.891,3.891,0,0,1,.535,1.279,2.749,2.749,0,0,1,1.806.2,4.089,4.089,0,0,1,2.394.046c.1-.024.227.01.3-.038" transform="translate(0 0)" fill="#fff" fill-rule="evenodd"/>
    </g>
  </g>
</svg>
