<svg width="26" height="26" viewBox="0 0 26 26" fill="none" xmlns="http://www.w3.org/2000/svg">
<path d="M23.1025 19.0049C23.6067 19.0562 24 19.4823 24 20C24 20.5177 23.6067 20.9438 23.1025 20.9951L23 21H3C2.44772 21 2 20.5523 2 20C2 19.4477 2.44772 19 3 19H23L23.1025 19.0049Z" fill="black"/>
<path d="M23.1025 12.0049C23.6067 12.0562 24 12.4823 24 13C24 13.5177 23.6067 13.9438 23.1025 13.9951L23 14H3C2.44772 14 2 13.5523 2 13C2 12.4477 2.44772 12 3 12H23L23.1025 12.0049Z" fill="black"/>
<path d="M23.1025 5.00488C23.6067 5.05621 24 5.48232 24 6C24 6.51768 23.6067 6.94379 23.1025 6.99512L23 7H3C2.44772 7 2 6.55228 2 6C2 5.44772 2.44772 5 3 5H23L23.1025 5.00488Z" fill="black"/>
</svg>
