<svg width="26" height="26" viewBox="0 0 26 26" fill="none" xmlns="http://www.w3.org/2000/svg">
<path d="M5.2216 5.22158C5.61213 4.83111 6.24516 4.83107 6.63567 5.22158L12.9999 11.5849L19.3642 5.22158L19.4394 5.15322C19.8321 4.83304 20.4122 4.85552 20.7782 5.22158C21.1442 5.58763 21.1668 6.16769 20.8466 6.56044L20.7782 6.63564L14.414 12.9989L20.7782 19.3632L20.8466 19.4393C21.1668 19.8321 21.1442 20.4122 20.7782 20.7782C20.4122 21.1443 19.8321 21.1668 19.4394 20.8466L19.3632 20.7782L12.9989 14.414L6.63567 20.7782C6.24515 21.1686 5.6121 21.1687 5.2216 20.7782C4.83111 20.3877 4.83117 19.7547 5.2216 19.3642L11.5849 12.9999L5.2216 6.63564C4.83108 6.24511 4.83108 5.6121 5.2216 5.22158Z" fill="black"/>
</svg>
